<svg xmlns="http://www.w3.org/2000/svg" viewBox="0 0 760 140">

  <!-- dinosaurio -->
  <g transform="translate(10,10) scale(0.24)">
    <g>
      <path fill="#C5D762" d="M400.213,244.611v71.354H430V187.379C430,208.413,417.611,230.98,400.213,244.611z"/>
      <path fill="#83B461" d="M226.741,210.989c29.58,0,55.088,18.278,65.815,44.094l42.658-15.394
        c0-0.067-0.005-0.133-0.005-0.2v-52.111h35l-0.007,39.685l2.583-0.932
        C386.774,221.084,400,202.251,400,187.379v-57.33h-64.791v30h-30v-30h-15.82
        c-41.701,0-90.744,32.761-108.984,72.802l-3.553,8.138H226.741z"/>
      <path fill="#DFEB9B" d="M335.215,239.69l-42.658,15.394c3.48,8.374,5.413,17.538,5.413,27.134v2.805
        c15.457-5.578,34.371-12.403,50.438-18.201C340.428,260.431,335.277,250.637,335.215,239.69z"/>
      <path fill="#A4C662" d="M370.209,244.526l0-57.147h-35v52.111c0,0.067,0.005,0.133,0.005,0.2
        c0.062,10.947,5.214,20.741,13.193,27.132c5.989,4.797,13.566,7.68,21.787,7.68v41.462h30v-71.439H370.209z"/>
      <path fill="#C5D762" d="M252.97,293.495c-22.596-10.014-38.368-32.624-38.368-58.931
        c0-8.324,1.596-16.271,4.469-23.575h-42.219L105.66,366.936
        c-8.032,13.881-26.482,25.492-40.675,25.492H0v40h64.985
        c28.592,0,61.274-20.095,76.023-46.742l0.386-0.696
        32.115-70.795l79.462,18.026V293.495z"/>
      <path fill="#A4C662" d="M292.556,255.083c-10.727-25.816-36.235-44.094-65.815-44.094h-7.67
        c-2.874,7.304-4.469,15.251-4.469,23.575
        c0,26.307,15.771,48.917,38.368,58.931v138.934h44.865
        l0.135-150.211C297.969,272.621,296.036,263.458,292.556,255.083z"/>
      <path fill="#DFEB9B" d="M400,82.428v104.95c0,14.872-13.226,33.705-27.214,38.753
        l-2.583,0.932L370.2,244.56h30.01v0.087
        C417.611,230.98,430,208.413,430,187.379
        c16.5,0,30-13.5,30-30v-74.95H400z"/>
      <path fill="#83B461" d="M423.49,27.748l-68.69,8.76v45.92H460v-21.58
        C460,40.669,443.57,25.768,423.49,27.748z"/>
      <rect x="265.209" y="170.379" fill="#C5D762" width="30" height="30"/>
      <rect x="305.209" y="130.049" fill="#C5D762" width="30" height="30"/>
    </g>
  </g>

  <!-- texto -->
  <text
    x="130"
    y="86"
    font-family="Inter, Arial, Helvetica, sans-serif"
    font-size="90"
    font-weight="500"
    fill="#000">
    denosaurios
  </text>

</svg>